<svg width="562" height="576" viewBox="0 0 562 576" fill="none" xmlns="http://www.w3.org/2000/svg">
<path d="M269.5 0L214 226.5L196.5 221L206.5 240L0 292.5L198 340C198 340 133.308 392 116 429.5C113 436 97.5 465 116 492C123.717 503.262 168 514 168 514C168 514 144.5 507 139 486.5C138.452 484.458 125.5 455.5 186.5 390.5C276 295.131 438 203.5 456.5 195.5C475 187.5 323.5 233.5 323.5 233.5L269.5 0Z" fill="url(#paint0_linear_25_6)"/>
<path d="M277.5 280.5L323.5 233.5C323.5 233.5 449.954 196.709 457.218 194.584C457.314 194.554 457.408 194.526 457.5 194.5C457.609 194.469 457.51 194.498 457.218 194.584C437.485 200.616 333.5 270 333.5 270C333.5 270 299 279.895 271.5 294.5C249.642 306.109 219 330 219 330L249 298L91.5 291L244 280.5L219 247.5L261.5 280.5L269.5 113.5L277.5 280.5Z" fill="url(#paint1_linear_25_6)"/>
<path d="M235 94.5L227.5 130.5C227.5 130.5 177.92 143.5 145 182.5C112.08 221.5 110.5 253 110.5 253L74.4999 261C74.4999 261 79.9785 204.5 118 159.5C167 101.506 235 94.5 235 94.5Z" fill="url(#paint2_linear_25_6)"/>
<path d="M74.4999 322.5C73.1553 316.139 99.4999 328.5 99.4999 328.5C104.5 378.5 131.5 408 131.5 408L125 415.5C125 415.5 87.4999 384 74.4999 322.5Z" fill="url(#paint3_linear_25_6)"/>
<path d="M398.5 143.5C380.403 124.645 340 111 340 111C340 111 386.662 121.572 412 138C422.796 145 447.5 166.5 447.5 166.5C447.5 166.5 495 163.166 508.5 166.5C517.5 168.723 550.67 171.121 558.5 191.5C564.007 205.834 560.073 216.623 553.5 230.5C540 259 470.5 316 470.5 316C470.5 316 470.5 384 406 445.5C370.173 479.66 301.5 496 301.5 496L310.5 460C310.5 460 367.041 442.43 392 415.5C411 395 427.5 379.5 437 340.5C438.078 336.074 337.5 403.5 287.5 420.5C284.992 421.353 377 351.5 377 351.5L275 403.5L272.5 473.5L301.5 431L269 575.5C269 575.5 226.978 430.743 225.5 431C214 433 157 475.5 157 475.5C157 475.5 167.914 446.5 210.5 415.5C296 353.261 424 295.5 476.5 253C498.935 234.838 529.587 204.93 517.5 191.5C495 166.5 424 180 424 180C424 180 410.955 156.476 398.5 143.5Z" fill="url(#paint4_linear_25_6)"/>
<defs>
<linearGradient id="paint0_linear_25_6" x1="218.5" y1="310" x2="631" y2="-127" gradientUnits="userSpaceOnUse">
<stop stop-color="#043367"/>
<stop offset="1" stop-color="#0866CD"/>
</linearGradient>
<linearGradient id="paint1_linear_25_6" x1="65.5" y1="394.5" x2="550.5" y2="174" gradientUnits="userSpaceOnUse">
<stop stop-color="#61A4ED"/>
<stop offset="1" stop-color="#043367"/>
</linearGradient>
<linearGradient id="paint2_linear_25_6" x1="839.5" y1="172.5" x2="211" y2="316" gradientUnits="userSpaceOnUse">
<stop stop-color="#75AEEE"/>
<stop offset="1" stop-color="#043367"/>
</linearGradient>
<linearGradient id="paint3_linear_25_6" x1="839.5" y1="172.5" x2="211" y2="316" gradientUnits="userSpaceOnUse">
<stop stop-color="#75AEEE"/>
<stop offset="1" stop-color="#043367"/>
</linearGradient>
<linearGradient id="paint4_linear_25_6" x1="839.5" y1="172.5" x2="211" y2="316" gradientUnits="userSpaceOnUse">
<stop stop-color="#75AEEE"/>
<stop offset="1" stop-color="#043367"/>
</linearGradient>
</defs>
</svg>
